<svg width="1626" height="1626" viewBox="0 0 1626 1626" fill="none" xmlns="http://www.w3.org/2000/svg">
<rect width="1626" height="1626" fill="white"/>
<path d="M812.5 490.961C1010.53 490.961 1171.07 651.497 1171.07 849.528C1171.07 1047.56 1010.53 1208.09 812.5 1208.09C614.469 1208.09 453.933 1047.56 453.933 849.528C453.933 651.497 614.469 490.961 812.5 490.961ZM812.5 595.907C672.429 595.907 558.88 709.457 558.88 849.527C558.88 989.598 672.429 1103.15 812.5 1103.15C952.571 1103.15 1066.12 989.598 1066.12 849.527C1066.12 709.457 952.571 595.907 812.5 595.907Z" fill="#6155F5"/>
<rect x="454" y="347.095" width="105" height="528" rx="52.5" fill="#6155F5"/>
<rect x="1077" y="1249" width="105" height="528" rx="52.5" transform="rotate(90 1077 1249)" fill="#6155F5"/>
</svg>
