<svg width="1071" height="1071" viewBox="0 0 1071 1071" fill="none" xmlns="http://www.w3.org/2000/svg">
<path d="M694.033 833C715.572 833 733.033 850.461 733.033 872C733.033 893.539 715.572 911 694.033 911H379.034C357.495 911 340.033 893.539 340.033 872C340.033 850.461 357.495 833 379.034 833H694.033ZM308.034 161C329.573 161 347.034 178.461 347.034 200V345.97C395.264 297.682 461.928 267.811 535.568 267.811C682.733 267.811 802.034 387.112 802.034 534.276C802.034 681.441 682.733 800.742 535.568 800.742C388.403 800.742 269.102 681.442 269.102 534.276C269.102 529.709 269.216 525.168 269.443 520.657C269.175 518.81 269.033 516.921 269.033 515V200C269.033 178.461 286.495 161 308.034 161ZM535.567 345.8C431.475 345.8 347.092 430.184 347.092 534.276C347.092 638.369 431.475 722.752 535.567 722.752C639.66 722.752 724.044 638.369 724.044 534.276C724.044 430.184 639.66 345.8 535.567 345.8Z" fill="#FF2D55"/>
</svg>
